# xmcd CD database file
#
# Track frame offsets:
#	150
#	16393
#	34011
#
# Disc length: 671 seconds
#
# Revision: 1
# Processed by: cddbd v1.5.1PL2 Copyright (c) Steve Scherf et al.
# Submitted via: CDex 1.51
#
DISCID=19029d03
DTITLE=Johnny Galan - Johnny Galan
DYEAR=1900
DGENRE=Merengue
TTITLE0=Las mujeres
TTITLE1=La reina del salòn
TTITLE2=La pastillita
EXTD=
EXTT0=
EXTT1=
EXTT2=
PLAYORDER=
